<svg width="64" height="64" xmlns="http://www.w3.org/2000/svg"><defs><mask id="a"><circle cx="8" cy="8" r="8" fill="#fff"/><circle cx="8" cy="13" r="1"/><circle cx="8" cy="9" r="1"/><path stroke="#000" fill="none" stroke-width="2" d="M8 9a3 3 270 10-3-3"/></mask><mask id="b"><path d="M8 0L0 16h16z" fill="#fff"/><circle cx="8" cy="13" r="1"/><path stroke="#000" fill="none" stroke-width="2" d="M8 6v5"/></mask></defs><path d="M0 0v16h16V0z" mask="url(#a)" fill="#aaa"/><path d="M24 0l-8 16h16zm1 4l-1 5h3l-4 7 1-5h-3z" fill="red"/><path d="M32 0a8 8 0 0016 0M34 1h12zm10 1l-4 4-4-4zm-4 9l-5 5h10z" fill="#dc0"/><path d="M33 16a7 7 0 0114 0m-13-1h12" stroke-width="2" stroke="#dc0" fill="none"/><path d="M50 6h6V2l6 6-6 6v-4h-6z" fill="#aaa"/><path d="M2 22h6v-4l6 6-6 6v-4H2z" fill="#dc0"/><path d="M30 18l-6 10-6-4" stroke-width="3" stroke="#0c0" fill="none"/><path d="M34 18l12 12m0-12L34 30" stroke-width="3" stroke="red" fill="none"/><path d="M0 0v16h16V0z" fill="red" mask="url(#b)" transform="translate(48 16)"/><g transform="translate(0 32)" fill="none" stroke="#aaa" stroke-width="2"><circle cx="8" cy="8" r="7"/><path d="M3 13L13 3"/></g><g transform="translate(16 32)"><rect fill="none" stroke="#000" x="2.5" y=".5" width="11" rx="1" height="13"/><path d="M3 1h2v10H3zm2 11h3v4l-1.5-1.5L5 16z"/><path d="M6.5 2v8" fill="none" stroke="#000" stroke-dasharray="1"/><path d="M2 10.5h12" fill="none" stroke="#000"/></g><g transform="translate(32 32)" fill="none" stroke="#000" stroke-width="2"><circle cx="8" cy="8" r="4"/><path d="M8 0v4m0 8v4"/></g><path d="M48 32v16h16V32zm4 6h4v-3l5 5-5 5v-3h-4z"/><g fill="none" stroke="#000"><path d="M.5 48.5h15v15H.5zm0 3h15m-12 5l2-2v7h-2 4M9 56a1.5 1.5 0 111.5 1.5 2 2 0 11-2 2"/><path d="M0 52.5h15" stroke-dasharray="1"/></g><g transform="translate(16 48)"><circle cx="7.5" cy="8.5" r="6.75" fill="none" stroke="#000" stroke-width="1.5"/><circle cx="7.5" cy="8.5" r="5.5" fill="none" stroke="#000" stroke-dasharray="1"/><path d="M6 0h3v2H6zm8 7v3h2V7z"/><path d="M7.5 4.5v4L11 11" fill="none" stroke="#000"/></g></svg>